simulation
nRows=73
nColumns=15
endheader
time  TH_x TH_y TH_z SC_y  SC_z  SC_x  AC_y  AC_z  AC_x  GH_y  GH_z  GH_yy  EL_x  PS_y
0.000000  0.000000  0.000000  0.000000  -30.813392  -0.339563  5.256548  53.621930  1.710824  -9.309778  42.446688  10.453411  -14.445645  22.668474  122.008067
0.000449  0.000000  0.000000  0.000000  -30.813392  -0.339563  35.000000  50.278843  -21.921412  -27.802614  42.446688  10.453411  -14.445645  22.668474  122.008067
0.000898  0.000000  0.000000  0.000000  -21.414920  19.606940  35.000000  40.541023  -27.410114  -21.074280  51.704434  3.581861  -23.824111  32.333630  123.412337
0.001346  0.000000  0.000000  0.000000  -11.090488  2.675395  35.000000  56.599682  -21.944034  -20.069682  38.782219  14.168578  -13.114785  31.718234  116.013899
0.001795  0.000000  0.000000  0.000000  -30.813392  -0.339563  41.428571  48.379749  -26.800118  -32.400473  42.446688  10.453411  -14.445645  22.668474  122.008067
0.002244  0.000000  0.000000  0.000000  -28.511216  12.282335  41.428571  46.340833  -29.572955  -23.021465  39.465278  17.713185  -5.542113  18.287492  114.046179
0.002693  0.000000  0.000000  0.000000  -16.925838  5.315286  41.428571  45.244645  -34.217868  -22.905247  45.398834  17.873438  -11.611864  14.649679  113.671888
0.003142  0.000000  0.000000  0.000000  -30.813392  -0.339563  47.857143  45.938152  -31.517178  -37.404987  42.446688  10.453411  -14.445645  22.668474  122.008067
0.003591  0.000000  0.000000  0.000000  -22.170837  10.166755  47.857143  42.956738  -32.128018  -27.856126  49.749271  6.170688  -22.591832  14.287341  118.244718
0.004039  0.000000  0.000000  0.000000  -14.229604  6.248937  47.857143  41.190533  -36.050642  -32.234379  39.997793  9.762723  -8.650677  31.217101  113.071566
0.004488  0.000000  0.000000  0.000000  -30.813392  -0.339563  54.285714  42.863527  -36.019110  -42.929320  42.446688  10.453411  -14.445645  22.668474  122.008067
0.004937  0.000000  0.000000  0.000000  -29.648993  4.318261  54.285714  46.214882  -38.156951  -33.542868  35.647447  9.806729  -24.125745  21.878571  123.705688
0.005386  0.000000  0.000000  0.000000  -11.237276  9.954199  54.285714  37.081497  -43.378836  -35.127867  49.559901  12.824776  -8.999512  14.732827  124.888558
0.005835  0.000000  0.000000  0.000000  -20.347196  8.159712  54.285714  37.553521  -39.190042  -37.559324  51.800667  2.722311  -15.651967  19.027178  116.138505
0.006284  0.000000  0.000000  0.000000  -30.813392  -0.339563  60.714286  39.048158  -40.237750  -49.100915  42.446688  10.453411  -14.445645  22.668474  122.008067
0.006732  0.000000  0.000000  0.000000  -32.657687  13.199283  60.714286  34.184329  -43.178550  -43.205047  36.859875  4.679615  -21.266943  25.219745  124.008917
0.007181  0.000000  0.000000  0.000000  -16.855821  7.830803  60.714286  29.606478  -45.627858  -43.934673  41.944483  13.103176  -20.677387  20.760494  117.607897
0.007630  0.000000  0.000000  0.000000  -25.318729  9.942418  60.714286  34.479514  -44.335813  -44.176314  46.689726  19.036783  -13.744754  27.265235  112.011548
0.008079  0.000000  0.000000  0.000000  -30.813392  -0.339563  67.142857  34.375271  -44.086469  -56.053973  42.446688  10.453411  -14.445645  22.668474  122.008067
0.008528  0.000000  0.000000  0.000000  -23.117077  11.392822  67.142857  34.705289  -42.935090  -46.658598  50.933711  7.617545  -11.008831  16.023543  114.667889
0.008977  0.000000  0.000000  0.000000  -29.806460  15.579591  67.142857  24.877687  -46.978835  -51.050852  43.131755  4.483468  -10.761803  13.323268  128.610276
0.009425  0.000000  0.000000  0.000000  -30.813392  -0.339563  73.571429  28.739557  -47.457518  -63.909437  42.446688  10.453411  -14.445645  22.668474  122.008067
0.009874  0.000000  0.000000  0.000000  -16.882269  14.913170  73.571429  19.784321  -51.419431  -56.326320  42.286363  6.909702  -8.345417  28.347034  126.739004
0.010323  0.000000  0.000000  0.000000  -14.694256  17.442417  73.571429  22.719712  -43.388396  -58.062454  50.214232  14.140183  -23.502220  22.127826  129.451357
0.010772  0.000000  0.000000  0.000000  -30.813392  -0.339563  80.000000  22.086657  -50.223308  -72.735914  42.446688  10.453411  -14.445645  22.668474  122.008067
0.011221  0.000000  0.000000  0.000000  -33.880674  6.779540  80.000000  17.854621  -53.133685  -63.795606  32.687596  18.190237  -5.728233  22.893217  120.444233
0.011670  0.000000  0.000000  0.000000  -30.758904  -0.563394  5.275682  53.431917  1.905244  -9.506538  42.583879  10.171136  -14.287129  22.722232  122.026806
0.012118  0.000000  0.000000  0.000000  -30.758904  -0.563394  35.000000  50.156271  -21.662045  -28.039503  42.583879  10.171136  -14.287129  22.722232  122.026806
0.012567  0.000000  0.000000  0.000000  -50.620176  17.937296  35.000000  42.892857  -30.344544  -20.312682  39.685100  1.458400  -10.442937  24.526827  120.669655
0.013016  0.000000  0.000000  0.000000  -18.584996  5.879962  35.000000  44.891260  -31.763670  -21.567745  43.014501  3.959317  -14.913485  12.952548  122.490014
0.013465  0.000000  0.000000  0.000000  -30.758904  -0.563394  41.428571  48.276068  -26.532461  -32.638391  42.583879  10.171136  -14.287129  22.722232  122.026806
0.013914  0.000000  0.000000  0.000000  -10.852112  8.170489  41.428571  45.884184  -26.160551  -24.244966  40.045658  15.571055  -14.125972  30.303705  122.819232
0.014363  0.000000  0.000000  0.000000  -16.635649  11.754650  41.428571  46.160495  -28.361055  -25.300912  47.312022  12.005267  -7.654475  18.501311  122.171400
0.014811  0.000000  0.000000  0.000000  -35.036590  17.522105  41.428571  40.863398  -34.386980  -23.478481  38.436016  1.648131  -18.530494  15.536994  130.386958
0.015260  0.000000  0.000000  0.000000  -30.758904  -0.563394  47.857143  45.857375  -31.242462  -37.638435  42.583879  10.171136  -14.287129  22.722232  122.026806
0.015709  0.000000  0.000000  0.000000  -24.269949  16.780125  47.857143  37.898185  -32.805742  -29.428344  49.434185  4.977147  -5.796610  15.417712  113.522526
0.016158  0.000000  0.000000  0.000000  -17.731897  9.094778  47.857143  40.122386  -32.917263  -34.673944  39.258014  17.676622  -17.596369  30.976695  117.341060
0.016607  0.000000  0.000000  0.000000  -27.141074  9.300391  47.857143  36.786589  -39.609190  -35.869440  36.539219  11.215048  -18.681540  26.246889  124.875744
0.017056  0.000000  0.000000  0.000000  -30.758904  -0.563394  54.285714  42.811415  -35.739035  -43.151247  42.583879  10.171136  -14.287129  22.722232  122.026806
0.017504  0.000000  0.000000  0.000000  -46.713723  7.895879  54.285714  42.437572  -40.492367  -34.074663  34.283453  13.827781  -21.691975  27.792758  123.912784
0.017953  0.000000  0.000000  0.000000  -27.604160  15.037258  54.285714  38.767845  -34.628029  -34.048682  42.478503  2.403740  -11.004452  23.410554  119.271320
0.018402  0.000000  0.000000  0.000000  -19.355972  5.906560  54.285714  33.748990  -39.172687  -45.073302  34.449801  5.388699  -23.170839  24.028512  129.231943
0.018851  0.000000  0.000000  0.000000  -30.758904  -0.563394  60.714286  39.032576  -39.954761  -49.302337  42.583879  10.171136  -14.287129  22.722232  122.026806
0.019300  0.000000  0.000000  0.000000  -18.595444  4.332907  60.714286  30.569174  -45.423218  -47.263103  35.499528  0.712103  -11.460575  21.846891  125.094788
0.019749  0.000000  0.000000  0.000000  -30.758904  -0.563394  67.142857  34.406309  -43.804113  -56.223820  42.583879  10.171136  -14.287129  22.722232  122.026806
0.020197  0.000000  0.000000  0.000000  -27.318052  14.284320  67.142857  25.155764  -44.545044  -55.577570  50.580525  17.888061  -17.074539  32.048784  126.740104
0.020646  0.000000  0.000000  0.000000  -16.181913  11.521099  67.142857  25.234955  -47.799616  -55.376136  49.430648  4.052133  -23.685628  21.636187  121.383418
0.021095  0.000000  0.000000  0.000000  -30.758904  -0.563394  73.571429  28.828982  -47.180842  -64.035083  42.583879  10.171136  -14.287129  22.722232  122.026806
0.021544  0.000000  0.000000  0.000000  -40.329530  12.099019  73.571429  20.874049  -49.681982  -60.202288  48.247906  14.363013  -6.984485  24.702307  113.780472
0.021993  0.000000  0.000000  0.000000  -30.758904  -0.563394  80.000000  22.245998  -49.959160  -72.805075  42.583879  10.171136  -14.287129  22.722232  122.026806
0.022442  0.000000  0.000000  0.000000  -17.796229  7.160372  80.000000  16.350039  -52.828721  -63.850557  51.858106  5.737936  -7.989460  25.931665  117.334231
0.022890  0.000000  0.000000  0.000000  -11.117286  17.566967  80.000000  14.587105  -46.001290  -73.608696  37.855183  0.180119  -5.234141  20.501365  114.725341
0.023339  0.000000  0.000000  0.000000  -14.750061  12.731759  80.000000  15.488363  -52.973334  -63.271289  41.939605  15.633609  -8.735524  14.749510  117.455622
0.023788  0.000000  0.000000  0.000000  -34.047299  12.076614  80.000000  17.427733  -50.203315  -63.529902  47.719100  5.497481  -20.259952  21.512151  119.271231
0.024237  0.000000  0.000000  0.000000  -30.822972  -0.652559  5.313485  53.273190  1.976258  -9.531005  42.563110  10.189077  -14.291098  22.642671  122.029294
0.024686  0.000000  0.000000  0.000000  -30.822972  -0.652559  35.000000  50.028419  -21.515261  -28.093836  42.563110  10.189077  -14.291098  22.642671  122.029294
0.025135  0.000000  0.000000  0.000000  -11.647292  14.213191  35.000000  46.949599  -18.952838  -25.493035  47.437143  10.886559  -9.381606  23.822515  118.372614
0.025583  0.000000  0.000000  0.000000  -29.944978  13.188801  35.000000  44.112487  -30.810703  -19.085398  46.381159  13.953463  -14.239065  29.345106  113.543300
0.026032  0.000000  0.000000  0.000000  -19.449920  9.763101  35.000000  40.307762  -35.666064  -19.899125  46.143680  11.538597  -20.898468  25.017385  127.785424
0.026481  0.000000  0.000000  0.000000  -27.936170  4.009110  35.000000  51.824491  -26.681972  -19.759296  45.432149  7.067742  -17.078606  24.747602  116.138668
0.026930  0.000000  0.000000  0.000000  -45.805223  19.170706  35.000000  40.173996  -30.030558  -19.659323  32.975562  12.416463  -10.713169  25.051767  127.238195
0.027379  0.000000  0.000000  0.000000  -13.786372  1.434144  35.000000  49.582726  -30.035794  -22.980024  42.895648  7.636270  -13.706006  30.819970  130.961833
0.027828  0.000000  0.000000  0.000000  -30.822972  -0.652559  41.428571  48.156863  -26.376612  -32.698786  42.563110  10.189077  -14.291098  22.642671  122.029294
0.028276  0.000000  0.000000  0.000000  -21.458199  16.688434  41.428571  41.042440  -29.584385  -25.782990  35.068972  12.955967  -6.685894  23.512933  115.885678
0.028725  0.000000  0.000000  0.000000  -29.781984  4.292322  41.428571  48.290435  -30.565630  -25.775773  35.635930  13.045313  -22.762606  14.229114  126.412683
0.029174  0.000000  0.000000  0.000000  -30.822972  -0.652559  47.857143  45.749011  -31.077902  -37.701796  42.563110  10.189077  -14.291098  22.642671  122.029294
0.029623  0.000000  0.000000  0.000000  -28.038866  6.034131  47.857143  43.756230  -35.746441  -32.195548  47.735927  7.367249  -17.343461  12.998449  122.127655
0.030072  0.000000  0.000000  0.000000  -30.822972  -0.652559  54.285714  42.717277  -35.566328  -43.213408  42.563110  10.189077  -14.291098  22.642671  122.029294
0.030521  0.000000  0.000000  0.000000  -30.822972  -0.652559  60.714286  38.957588  -39.774856  -49.357693  42.563110  10.189077  -14.291098  22.642671  122.029294
0.030969  0.000000  0.000000  0.000000  -11.607300  4.794263  60.714286  29.332213  -44.519081  -49.799320  36.160926  10.697531  -8.087703  21.317895  124.607993
0.031418  0.000000  0.000000  0.000000  -12.823952  1.486130  60.714286  33.750998  -45.321871  -46.781374  49.948889  14.355713  -14.030280  24.746809  123.009377
0.031867  0.000000  0.000000  0.000000  -30.822972  -0.652559  67.142857  34.357223  -43.618587  -56.265031  42.563110  10.189077  -14.291098  22.642671  122.029294
0.032316  0.000000  0.000000  0.000000  -13.470593  7.825866  67.142857  38.030282  -42.219753  -47.779895  43.040341  6.775988  -10.612652  29.570080  118.429960
